<?xml version="1.0" encoding="UTF-8" standalone="no"?>
<svg width="48px" height="48px" viewBox="0 0 48 48" version="1.1" xmlns="http://www.w3.org/2000/svg" xmlns:xlink="http://www.w3.org/1999/xlink">
    <!-- Generator: Sketch 39.1 (31720) - http://www.bohemiancoding.com/sketch -->
    <title>airplane-flight</title>
    <desc>Created with Sketch.</desc>
    <defs>
        <linearGradient x1="100%" y1="0%" x2="10.4656335%" y2="86.5736787%" id="linearGradient-1">
            <stop stop-color="#80C3F3" offset="0%"></stop>
            <stop stop-color="#49E2CE" offset="100%"></stop>
        </linearGradient>
    </defs>
    <g id="Initial-request" stroke="none" stroke-width="1" fill="none" fill-rule="evenodd">
        <g id="1" transform="translate(-250.000000, -258.000000)" fill="url(#linearGradient-1)">
            <path d="M296.187612,258.117019 L291.112612,260.427019 C290.787612,260.577019 290.487612,260.782019 290.232612,261.037019 L281.962612,269.312019 L253.482612,265.897019 C252.967612,265.837019 252.447612,266.012019 252.082612,266.382019 L250.497612,267.967019 C249.657612,268.807019 249.917612,270.227019 251.002612,270.712019 L271.412612,279.862019 L265.552612,285.722019 L255.317612,285.722019 C254.867612,285.722019 254.437612,285.902019 254.117612,286.216969 L253.262612,287.076969 C252.412612,287.926969 252.692612,289.361969 253.792612,289.832019 L262.427612,293.532019 L266.127612,302.166969 C266.597612,303.266969 268.037612,303.547019 268.882662,302.697019 L269.742612,301.837019 C270.062612,301.517019 270.237612,301.087019 270.237612,300.637019 L270.237612,290.402019 L276.097612,284.542019 L285.247612,304.957069 C285.732612,306.042019 287.152612,306.302019 287.992562,305.462069 L289.577562,303.877069 C289.947562,303.507069 290.122562,302.992069 290.062562,302.477069 L286.642562,273.997069 L294.917562,265.722069 C295.172612,265.467069 295.377562,265.172069 295.527562,264.842069 L297.837562,259.767069 C298.322662,258.722019 297.242612,257.637019 296.187612,258.117019 L296.187612,258.117019 Z" id="airplane-flight"></path>
        </g>
    </g>
</svg>