<?xml version="1.0" encoding="UTF-8" standalone="no"?>
<svg width="26px" height="20px" viewBox="0 0 26 20" version="1.1" xmlns="http://www.w3.org/2000/svg" xmlns:xlink="http://www.w3.org/1999/xlink">
    <!-- Generator: Sketch 40.1 (33804) - http://www.bohemiancoding.com/sketch -->
    <title>airplane-ticket</title>
    <desc>Created with Sketch.</desc>
    <defs>
        <path d="M22.5408733,9.72695865 L22.2637776,8.08955664 C22.0586693,6.87869601 20.9713291,6 19.6782162,6 C19.5046714,6 19.3289117,6.01603713 19.1560315,6.04776525 L2.28398583,9.14673777 C0.807249913,9.41786902 -0.202011708,10.7754867 0.0343280591,12.1727933 L0.0531555007,12.2834379 L0.0531555007,21.3092242 C0.0531555007,22.7929467 1.33120654,24 2.90241192,24 L21.1507436,24 C22.721949,24 24,22.7929467 24,21.3092242 L24,12.07334 C24,11.0664624 23.4104796,10.1882279 22.5408733,9.72695865 L22.5408733,9.72695865 Z M19.4105342,7.55040926 C19.4993555,7.53414139 19.5895057,7.52571901 19.6783269,7.52571901 C20.2593196,7.52571901 20.7400839,7.87438226 20.8213741,8.35434227 L20.9954726,9.38233352 L9.43708465,9.38233352 L19.4105342,7.55040926 L19.4105342,7.55040926 Z M22.535225,21.309455 C22.535225,21.9516322 21.914141,22.474281 21.1507436,22.474281 L2.90241192,22.474281 C2.13901453,22.474281 1.51793046,21.9516322 1.51793046,21.309455 L1.51793046,12.07334 C1.51793046,11.4311628 2.13901453,10.908514 2.90241192,10.908514 L21.1507436,10.908514 C21.914141,10.908514 22.535225,11.4311628 22.535225,12.07334 L22.535225,21.309455 Z M6.56213432,17.3478236 L8.02690928,17.3478236 L8.02690928,18.6611372 L6.56213432,18.6611372 L6.56213432,17.3478236 Z M6.56213432,19.974797 L8.02690928,19.974797 L8.02690928,21.2881106 L6.56213432,21.2881106 L6.56213432,19.974797 Z M6.56213432,12.0946844 L8.02690928,12.0946844 L8.02690928,13.4079981 L6.56213432,13.4079981 L6.56213432,12.0946844 Z M6.56213432,14.7211963 L8.02690928,14.7211963 L8.02690928,16.0345099 L6.56213432,16.0345099 L6.56213432,14.7211963 Z M17.7272502,13.8826508 L16.6650502,15.0652446 L13.2952704,14.0144091 L12.7262387,14.6069751 C12.6642189,14.6720466 12.6642189,14.7773839 12.7264602,14.8419939 L15.4585435,16.4086711 L14.0845832,17.8647036 L13.0221618,17.6391455 L12.6676521,18.0086916 C12.6205835,18.0572645 12.6205835,18.1368732 12.6676521,18.1859076 L14.6732177,20.2752335 C14.7200648,20.3238063 14.796482,20.3238063 14.8433291,20.274772 L15.1978388,19.9056873 L14.9758965,18.7780121 L16.3681304,17.3473621 L17.882189,20.2136232 C17.9446518,20.2786947 18.0457662,20.2786947 18.1080075,20.2136232 L18.6768178,19.6210572 L17.6614649,16.0871209 L18.7883427,14.9886356 C19.0986632,14.6653548 19.1120639,14.1559742 18.8191311,13.8502304 C18.526309,13.5446021 18.0375707,13.5593701 17.7272502,13.8826508 Z" id="path-1"></path>
        <filter x="-50%" y="-50%" width="200%" height="200%" filterUnits="objectBoundingBox" id="filter-2">
            <feOffset dx="0" dy="1" in="SourceAlpha" result="shadowOffsetOuter1"></feOffset>
            <feGaussianBlur stdDeviation="0.5" in="shadowOffsetOuter1" result="shadowBlurOuter1"></feGaussianBlur>
            <feColorMatrix values="0 0 0 0 0   0 0 0 0 0   0 0 0 0 0  0 0 0 0.12 0" type="matrix" in="shadowBlurOuter1"></feColorMatrix>
        </filter>
    </defs>
    <g id="Quoting-operator" stroke="none" stroke-width="1" fill="none" fill-rule="evenodd">
        <g id="3" transform="translate(-15.000000, -29.000000)">
            <g id="Group-2" transform="translate(16.000000, 23.000000)">
                <g id="airplane-ticket">
                    <use fill="black" fill-opacity="1" filter="url(#filter-2)" xlink:href="#path-1"></use>
                    <use fill="#FFFFFF" fill-rule="evenodd" xlink:href="#path-1"></use>
                </g>
            </g>
        </g>
    </g>
</svg>