<?xml version="1.0" encoding="UTF-8" standalone="no"?>
<svg width="48px" height="35px" viewBox="0 0 48 35" version="1.1" xmlns="http://www.w3.org/2000/svg" xmlns:xlink="http://www.w3.org/1999/xlink">
    <!-- Generator: Sketch 39.1 (31720) - http://www.bohemiancoding.com/sketch -->
    <title>airplane-ticket</title>
    <desc>Created with Sketch.</desc>
    <defs>
        <linearGradient x1="100%" y1="0%" x2="10.4656335%" y2="86.5736787%" id="linearGradient-1">
            <stop stop-color="#80C3F3" offset="0%"></stop>
            <stop stop-color="#49E2CE" offset="100%"></stop>
        </linearGradient>
    </defs>
    <g id="Quoting-operator" stroke="none" stroke-width="1" fill="none" fill-rule="evenodd">
        <g id="3.2" transform="translate(-252.000000, -829.000000)" fill="url(#linearGradient-1)">
            <g id="Group-2" transform="translate(252.000000, 829.000000)">
                <path d="M45.0204522,7.20130573 L44.4670144,4.03748408 C44.0573554,1.69783439 41.8856319,0 39.3029222,0 C38.9563047,0 38.6052632,0.0309872611 38.2599729,0.0922929936 L4.56176093,6.08019108 C1.61230471,6.60407643 -0.403474095,9.22729299 0.0685627714,11.9271975 L0.106166458,12.1409873 L0.106166458,29.5807962 C0.106166458,32.4476752 2.65879319,34.7799682 5.79693144,34.7799682 L42.2439729,34.7799682 C45.3821112,34.7799682 47.9347379,32.4476752 47.9347379,29.5807962 L47.9347379,11.7350318 C47.9347379,9.78952229 46.7573001,8.09257962 45.0204522,7.20130573 L45.0204522,7.20130573 Z M38.7682863,2.99573248 C38.9456872,2.96429936 39.1257425,2.94802548 39.3031434,2.94802548 C40.4635489,2.94802548 41.4237701,3.62171975 41.5861296,4.54910828 L41.9338531,6.53541401 L18.8485075,6.53541401 L38.7682863,2.99573248 L38.7682863,2.99573248 Z M45.0091711,29.581242 C45.0091711,30.8220701 43.7686918,31.8319427 42.2439729,31.8319427 L5.79693144,31.8319427 C4.27221254,31.8319427 3.03173328,30.8220701 3.03173328,29.581242 L3.03173328,11.7350318 C3.03173328,10.4942038 4.27221254,9.48433121 5.79693144,9.48433121 L42.2439729,9.48433121 C43.7686918,9.48433121 45.0091711,10.4942038 45.0091711,11.7350318 L45.0091711,29.581242 Z M13.1064245,21.9264968 L16.0319913,21.9264968 L16.0319913,24.4641083 L13.1064245,24.4641083 L13.1064245,21.9264968 Z M13.1064245,27.0023885 L16.0319913,27.0023885 L16.0319913,29.54 L13.1064245,29.54 L13.1064245,27.0023885 Z M13.1064245,11.7762739 L16.0319913,11.7762739 L16.0319913,14.3138854 L13.1064245,14.3138854 L13.1064245,11.7762739 Z M13.1064245,16.8512739 L16.0319913,16.8512739 L16.0319913,19.3888854 L13.1064245,19.3888854 L13.1064245,16.8512739 Z M35.4062955,15.2310191 L33.284784,17.516051 L26.5543877,15.4856051 L25.4178715,16.6305732 C25.2940006,16.7563057 25.2940006,16.9598408 25.4183139,17.0846815 L30.8750513,20.1118471 L28.1308669,22.9252229 L26.008913,22.4893949 L25.3008577,23.2034395 C25.2068485,23.297293 25.2068485,23.4511146 25.3008577,23.5458599 L29.3065351,27.5828981 C29.4001019,27.6767516 29.5527287,27.6767516 29.6462955,27.5820064 L30.3543508,26.8688535 L29.9110697,24.6899363 L32.6917517,21.9256051 L35.7157517,27.4638535 C35.8405075,27.589586 36.0424614,27.589586 36.1667748,27.4638535 L37.3028485,26.3188854 L35.2749038,19.4905414 L37.525595,17.3680255 C38.1453923,16.7433758 38.1721572,15.7591401 37.5870881,15.1683758 C37.0022402,14.5778344 36.0260927,14.6063694 35.4062955,15.2310191 Z" id="airplane-ticket"></path>
            </g>
        </g>
    </g>
</svg>