<?xml version="1.0" encoding="UTF-8" standalone="no"?>
<svg width="36px" height="36px" viewBox="0 0 36 36" version="1.1" xmlns="http://www.w3.org/2000/svg" xmlns:xlink="http://www.w3.org/1999/xlink">
    <!-- Generator: Sketch 39.1 (31720) - http://www.bohemiancoding.com/sketch -->
    <title>ic_av_timer_black_24px-2</title>
    <desc>Created with Sketch.</desc>
    <defs></defs>
    <g id="Flight-routing" stroke="none" stroke-width="1" fill="none" fill-rule="evenodd">
        <g id="2" transform="translate(-818.000000, -305.000000)">
            <g id="ic_av_timer_black_24px-2" transform="translate(812.000000, 299.000000)">
                <polygon id="Shape" points="0 0 48 0 48 48 0 48"></polygon>
                <path d="M22,34 C22,35.1 22.9,36 24,36 C25.1,36 26,35.1 26,34 C26,32.9 25.1,32 24,32 C22.9,32 22,32.9 22,34 L22,34 Z M22,6 L22,14 L26,14 L26,10.16 C32.78,11.14 38,16.94 38,24 C38,31.74 31.74,38 24,38 C16.26,38 10,31.74 10,24 C10,20.64 11.18,17.56 13.16,15.16 L24,26 L26.82,23.18 L13.22,9.58 L13.22,9.62 C8.84,12.9 6,18.1 6,24 C6,33.94 14.04,42 24,42 C33.94,42 42,33.94 42,24 C42,14.06 33.94,6 24,6 L22,6 L22,6 Z M36,24 C36,22.9 35.1,22 34,22 C32.9,22 32,22.9 32,24 C32,25.1 32.9,26 34,26 C35.1,26 36,25.1 36,24 L36,24 Z M12,24 C12,25.1 12.9,26 14,26 C15.1,26 16,25.1 16,24 C16,22.9 15.1,22 14,22 C12.9,22 12,22.9 12,24 L12,24 Z" id="Shape" fill="#4990E2"></path>
            </g>
        </g>
    </g>
</svg>