<?xml version="1.0" encoding="UTF-8" standalone="no"?>
<svg width="18px" height="18px" viewBox="0 0 18 18" version="1.1" xmlns="http://www.w3.org/2000/svg" xmlns:xlink="http://www.w3.org/1999/xlink">
    <!-- Generator: Sketch 40.1 (33804) - http://www.bohemiancoding.com/sketch -->
    <title>ic_account_box_black_24px</title>
    <desc>Created with Sketch.</desc>
    <defs></defs>
    <g id="Initial-request" stroke="none" stroke-width="1" fill="none" fill-rule="evenodd">
        <g id="1.1" transform="translate(-255.000000, -755.000000)">
            <g id="ic_account_box_black_24px" transform="translate(252.000000, 752.000000)">
                <path d="M3,5 L3,19 C3,20.1 3.89,21 5,21 L19,21 C20.1,21 21,20.1 21,19 L21,5 C21,3.9 20.1,3 19,3 L5,3 C3.89,3 3,3.9 3,5 L3,5 Z M15,9 C15,10.66 13.66,12 12,12 C10.34,12 9,10.66 9,9 C9,7.34 10.34,6 12,6 C13.66,6 15,7.34 15,9 L15,9 Z M6,17 C6,15 10,13.9 12,13.9 C14,13.9 18,15 18,17 L18,18 L6,18 L6,17 L6,17 Z" id="Shape" fill="#4990E2"></path>
                <polygon id="Shape" points="0 0 24 0 24 24 0 24"></polygon>
            </g>
        </g>
    </g>
</svg>