<?xml version="1.0" encoding="UTF-8" standalone="no"?>
<svg width="18px" height="20px" viewBox="0 0 18 20" version="1.1" xmlns="http://www.w3.org/2000/svg" xmlns:xlink="http://www.w3.org/1999/xlink">
    <!-- Generator: Sketch 40.1 (33804) - http://www.bohemiancoding.com/sketch -->
    <title>ic_today_black_24px</title>
    <desc>Created with Sketch.</desc>
    <defs></defs>
    <g id="Initial-request" stroke="none" stroke-width="1" fill="none" fill-rule="evenodd">
        <g id="1.1" transform="translate(-255.000000, -561.000000)">
            <g id="ic_today_black_24px" transform="translate(252.000000, 560.000000)">
                <polygon id="Shape" points="0 0 24 0 24 24 0 24"></polygon>
                <path d="M19,3 L18,3 L18,1 L16,1 L16,3 L8,3 L8,1 L6,1 L6,3 L5,3 C3.89,3 3.01,3.9 3.01,5 L3,19 C3,20.1 3.89,21 5,21 L19,21 C20.1,21 21,20.1 21,19 L21,5 C21,3.9 20.1,3 19,3 L19,3 Z M19,19 L5,19 L5,8 L19,8 L19,19 L19,19 Z M7,10 L12,10 L12,15 L7,15 L7,10 Z" id="Shape" fill="#4990E2"></path>
            </g>
        </g>
    </g>
</svg>