<?xml version="1.0" encoding="UTF-8" standalone="no"?>
<svg width="48px" height="38px" viewBox="0 0 48 38" version="1.1" xmlns="http://www.w3.org/2000/svg" xmlns:xlink="http://www.w3.org/1999/xlink">
    <!-- Generator: Sketch 39.1 (31720) - http://www.bohemiancoding.com/sketch -->
    <title>Combined Shape</title>
    <desc>Created with Sketch.</desc>
    <defs>
        <linearGradient x1="100%" y1="0%" x2="10.4656335%" y2="86.5736787%" id="linearGradient-1">
            <stop stop-color="#80C3F3" offset="0%"></stop>
            <stop stop-color="#49E2CE" offset="100%"></stop>
        </linearGradient>
    </defs>
    <g id="Initial-request" stroke="none" stroke-width="1" fill="none" fill-rule="evenodd">
        <g id="1.3" transform="translate(-616.000000, -257.000000)" fill="url(#linearGradient-1)">
            <path d="M658.079339,257.78719 L621.861157,257.78719 C618.628099,257.78719 616,260.415289 616,263.648347 L616,288.402066 C616,291.635124 618.628099,294.263223 621.861157,294.263223 L658.069421,294.263223 C661.302479,294.263223 663.930579,291.635124 663.930579,288.402066 L663.930579,263.658264 C663.940496,260.425207 661.312397,257.78719 658.079339,257.78719 L658.079339,257.78719 Z M661.26281,288.402066 C661.26281,290.157438 659.834711,291.585537 658.079339,291.585537 L621.861157,291.585537 C620.105785,291.585537 618.677686,290.157438 618.677686,288.402066 L618.677686,263.658264 C618.677686,261.902893 620.105785,260.474793 621.861157,260.474793 L658.069421,260.474793 C659.824793,260.474793 661.252893,261.902893 661.252893,263.658264 L661.252893,288.402066 L661.26281,288.402066 Z M646.228099,275.717769 L657.950413,265.205372 C658.495868,264.709504 658.545455,263.866529 658.049587,263.311157 C657.553719,262.765702 656.710744,262.716116 656.155372,263.211983 L639.990083,277.721074 L636.836364,274.904545 C636.826446,274.894628 636.816529,274.884711 636.816529,274.874793 C636.747107,274.805372 636.677686,274.745868 636.598347,274.686364 L623.765289,263.202066 C623.209917,262.706198 622.366942,262.755785 621.871074,263.311157 C621.375207,263.866529 621.424793,264.709504 621.980165,265.205372 L633.841322,275.807025 L622.029752,286.864876 C621.494215,287.370661 621.464463,288.213636 621.970248,288.759091 C622.238017,289.036777 622.595041,289.185537 622.952066,289.185537 C623.279339,289.185537 623.606612,289.066529 623.864463,288.828512 L635.854545,277.611983 L639.107438,280.517769 C639.365289,280.745868 639.682645,280.854959 640,280.854959 C640.317355,280.854959 640.644628,280.73595 640.892562,280.507851 L644.234711,277.51281 L656.155372,288.83843 C656.413223,289.086364 656.750413,289.205372 657.077686,289.205372 C657.434711,289.205372 657.781818,289.066529 658.049587,288.788843 C658.555372,288.253306 658.535537,287.400413 658,286.894628 L646.228099,275.717769 Z" id="Combined-Shape"></path>
        </g>
    </g>
</svg>