<?xml version="1.0" encoding="UTF-8" standalone="no"?>
<svg width="20px" height="20px" viewBox="0 0 20 20" version="1.1" xmlns="http://www.w3.org/2000/svg" xmlns:xlink="http://www.w3.org/1999/xlink">
    <!-- Generator: Sketch 39.1 (31720) - http://www.bohemiancoding.com/sketch -->
    <title>ic_remove_circle_outline_black_24px</title>
    <desc>Created with Sketch.</desc>
    <defs></defs>
    <g id="Flight-routing" stroke="none" stroke-width="1" fill="none" fill-rule="evenodd">
        <g id="2.2" transform="translate(-812.000000, -559.000000)">
            <g id="ic_remove_circle_outline_black_24px" transform="translate(810.000000, 557.000000)">
                <polygon id="Shape" points="0 0 24 0 24 24 0 24"></polygon>
                <path d="M7,11 L7,13 L17,13 L17,11 L7,11 L7,11 Z M12,2 C6.48,2 2,6.48 2,12 C2,17.52 6.48,22 12,22 C17.52,22 22,17.52 22,12 C22,6.48 17.52,2 12,2 L12,2 Z M12,20 C7.59,20 4,16.41 4,12 C4,7.59 7.59,4 12,4 C16.41,4 20,7.59 20,12 C20,16.41 16.41,20 12,20 L12,20 Z" id="Shape" fill="#FF4158"></path>
            </g>
        </g>
    </g>
</svg>