<?xml version="1.0" encoding="UTF-8" standalone="no"?>
<svg width="20px" height="11px" viewBox="0 0 20 11" version="1.1" xmlns="http://www.w3.org/2000/svg" xmlns:xlink="http://www.w3.org/1999/xlink">
    <!-- Generator: Sketch 40.1 (33804) - http://www.bohemiancoding.com/sketch -->
    <title>ic_airline_seat_flat_black_24px</title>
    <desc>Created with Sketch.</desc>
    <defs></defs>
    <g id="Initial-request" stroke="none" stroke-width="1" fill="none" fill-rule="evenodd">
        <g id="1.1" transform="translate(-254.000000, -663.000000)">
            <g id="ic_airline_seat_flat_black_24px" transform="translate(252.000000, 656.000000)">
                <path d="M22,11 L22,13 L9,13 L9,7 L18,7 C20.21,7 22,8.79 22,11 L22,11 Z M2,14 L2,16 L8,16 L8,18 L16,18 L16,16 L22,16 L22,14 L2,14 L2,14 Z M7.14,12.1 C8.3,10.91 8.28,9.02 7.1,7.86 C5.91,6.7 4.02,6.72 2.86,7.9 C1.7,9.09 1.72,10.98 2.9,12.14 C4.09,13.3 5.98,13.28 7.14,12.1 L7.14,12.1 Z" id="Shape" fill="#4990E2"></path>
                <polygon id="Shape" points="0 0 24 0 24 24 0 24"></polygon>
            </g>
        </g>
    </g>
</svg>