<?xml version="1.0" encoding="UTF-8" standalone="no"?>
<svg width="48px" height="48px" viewBox="0 0 48 48" version="1.1" xmlns="http://www.w3.org/2000/svg" xmlns:xlink="http://www.w3.org/1999/xlink">
    <!-- Generator: Sketch 39.1 (31720) - http://www.bohemiancoding.com/sketch -->
    <title>Route</title>
    <desc>Created with Sketch.</desc>
    <defs>
        <linearGradient x1="100%" y1="0%" x2="10.4656335%" y2="86.5736787%" id="linearGradient-1">
            <stop stop-color="#80C3F3" offset="0%"></stop>
            <stop stop-color="#49E2CE" offset="100%"></stop>
        </linearGradient>
    </defs>
    <g id="Flight-routing" stroke="none" stroke-width="1" fill="none" fill-rule="evenodd">
        <g id="2" transform="translate(-249.000000, -261.000000)" fill="url(#linearGradient-1)">
            <g id="Group-2" transform="translate(249.000000, 261.000000)">
                <path d="M42,34.2857143 C39.789,34.2857143 37.875,35.6742857 36.834,37.7142857 L10.5,37.7142857 C8.019,37.7142857 6,35.4068571 6,32.5714286 C6,29.736 8.019,27.4285714 10.5,27.4285714 L37.5,27.4285714 C43.29,27.4285714 48,22.0457143 48,15.4285714 C48,8.81142857 43.29,3.42857143 37.5,3.42857143 L11.166,3.42857143 C10.125,1.38857143 8.211,0 6,0 C2.691,0 0,3.07542857 0,6.85714286 C0,10.6388571 2.691,13.7142857 6,13.7142857 C8.211,13.7142857 10.125,12.3257143 11.166,10.2857143 L37.5,10.2857143 C39.981,10.2857143 42,12.5931429 42,15.4285714 C42,18.264 39.981,20.5714286 37.5,20.5714286 L10.5,20.5714286 C4.71,20.5714286 0,25.9542857 0,32.5714286 C0,39.1885714 4.71,44.5714286 10.5,44.5714286 L36.834,44.5714286 C37.875,46.6114286 39.789,48 42,48 C45.309,48 48,44.9245714 48,41.1428571 C48,37.3611429 45.309,34.2857143 42,34.2857143 L42,34.2857143 Z" id="Route"></path>
            </g>
        </g>
    </g>
</svg>