<?xml version="1.0" encoding="UTF-8" standalone="no"?>
<svg width="40px" height="38px" viewBox="0 0 40 38" version="1.1" xmlns="http://www.w3.org/2000/svg" xmlns:xlink="http://www.w3.org/1999/xlink">
    <!-- Generator: Sketch 39.1 (31720) - http://www.bohemiancoding.com/sketch -->
    <title>ic_local_airport_black_24px</title>
    <desc>Created with Sketch.</desc>
    <defs></defs>
    <g id="Initial-request" stroke="none" stroke-width="1" fill="none" fill-rule="evenodd">
        <g id="1.2" transform="translate(-620.000000, -505.000000)">
            <g id="ic_local_airport_black_24px" transform="translate(640.000000, 525.000000) rotate(90.000000) translate(-640.000000, -525.000000) translate(616.000000, 501.000000)">
                <path d="M42,32 L42,28 L26,18 L26,7 C26,5.34 24.66,4 23,4 C21.34,4 20,5.34 20,7 L20,18 L4,28 L4,32 L20,27 L20,38 L16,41 L16,44 L23,42 L30,44 L30,41 L26,38 L26,27 L42,32 L42,32 Z" id="Shape" fill="#FFFFFF"></path>
                <polygon id="Shape" points="0 0 48 0 48 48 0 48"></polygon>
            </g>
        </g>
    </g>
</svg>